<svg width="28" height="20" viewBox="0 0 28 20" fill="none" xmlns="http://www.w3.org/2000/svg">
<path fill-rule="evenodd" clip-rule="evenodd" d="M19.9586 2.72484C18.2044 0.968642 15.8716 0.00102539 13.3862 0C8.26502 0 4.09707 4.16783 4.09502 9.29042C4.09432 10.928 4.52208 12.5265 5.33519 13.9355L4.01709 18.75L8.94251 17.4579C10.2997 18.1983 11.8276 18.5884 13.3824 18.5889H13.3864C18.507 18.5889 22.6754 14.4207 22.6773 9.29786C22.6784 6.81518 21.7129 4.48096 19.9586 2.72484ZM13.3862 17.0197H13.383C11.9974 17.0191 10.6384 16.6468 9.45254 15.9433L9.1707 15.7759L6.24787 16.5426L7.02799 13.6929L6.8443 13.4008C6.07127 12.1712 5.66305 10.7501 5.66375 9.29097C5.66536 5.0332 9.12971 1.5692 13.3893 1.5692C15.452 1.56987 17.391 2.37416 18.8489 3.83385C20.3069 5.29353 21.1094 7.23378 21.1087 9.29727C21.1069 13.5554 17.6428 17.0197 13.3862 17.0197ZM17.6221 11.236C17.3901 11.1197 16.2486 10.5583 16.0357 10.4807C15.8231 10.4032 15.6682 10.3646 15.5136 10.597C15.3587 10.8293 14.9139 11.3523 14.7784 11.5071C14.6429 11.6621 14.5076 11.6815 14.2754 11.5653C14.0432 11.4491 13.2952 11.2039 12.4084 10.413C11.7184 9.79737 11.2525 9.03714 11.117 8.80485C10.9817 8.57229 11.1158 8.45877 11.2188 8.33103C11.4701 8.01896 11.7218 7.69177 11.7992 7.53694C11.8766 7.38196 11.8378 7.24637 11.7797 7.13021C11.7218 7.01405 11.2575 5.87135 11.0641 5.40638C10.8755 4.95389 10.6843 5.01498 10.5417 5.00792C10.4064 5.00115 10.2516 4.99977 10.0967 4.99977C9.942 4.99977 9.69046 5.05778 9.47761 5.29034C9.26486 5.52278 8.66521 6.08434 8.66521 7.22704C8.66521 8.36973 9.49707 9.47361 9.61311 9.62856C9.72913 9.78354 11.2502 12.1284 13.5789 13.1339C14.1328 13.3733 14.5652 13.516 14.9025 13.623C15.4586 13.7997 15.9646 13.7748 16.3647 13.715C16.8107 13.6483 17.7381 13.1534 17.9317 12.6111C18.1251 12.0688 18.1251 11.604 18.067 11.5071C18.0091 11.4103 17.8542 11.3523 17.6221 11.236Z" fill="#FEFEFE"/>
</svg>
