<svg width="28" height="20" viewBox="0 0 28 20" fill="none" xmlns="http://www.w3.org/2000/svg">
<g clip-path="url(#clip0_2029_29541)">
<path d="M23.6938 2.15033C23.4497 1.85063 23.0833 1.68555 22.6621 1.68555C22.4348 1.68555 22.194 1.73313 21.9464 1.82692L5.01394 8.24239C4.11363 8.58358 3.99245 9.09715 4.00035 9.3729C4.0082 9.64729 4.15707 10.1494 5.06327 10.4393L8.65423 11.7552L10.5468 16.0873C10.737 16.6865 11.1345 17.1068 11.6419 17.2431C11.7582 17.2744 11.8781 17.2901 11.9985 17.29C12.4106 17.29 12.8325 17.1086 13.1968 16.7664L14.7648 15.2933L18.5905 17.9265C18.935 18.1811 19.3099 18.3156 19.6755 18.3155C20.4175 18.3155 21.0093 17.7724 21.1831 16.9318L23.9524 3.53819C24.0662 2.98774 23.9744 2.49487 23.6938 2.15033ZM9.84431 11.5519L14.7309 8.93144L11.3253 12.0553C11.2656 12.1102 11.218 12.1769 11.1855 12.2511C11.153 12.3253 11.1362 12.4055 11.1363 12.4865C11.136 12.4925 11.1353 12.4984 11.1353 12.5044L11.1235 14.48L9.84431 11.5519ZM12.3944 15.9122C12.3603 15.9444 12.3242 15.9744 12.2863 16.002L12.3007 13.5972L13.7769 14.6133L12.3944 15.9122ZM22.8048 3.30088L20.0355 16.6944C20.0076 16.8295 19.9166 17.1436 19.6754 17.1436C19.5628 17.1436 19.4231 17.0856 19.2821 16.9803C19.276 16.9758 19.2699 16.9714 19.2637 16.9672L15.046 14.0641L15.0443 14.063L12.6596 12.4216L18.9589 6.64343C19.0641 6.54693 19.1305 6.41535 19.1455 6.27339C19.1605 6.13143 19.1233 5.98887 19.0406 5.87246C18.958 5.75605 18.8357 5.67381 18.6968 5.64118C18.5578 5.60854 18.4117 5.62776 18.2859 5.69523L9.04553 10.6505L5.4545 9.33454C5.45188 9.33357 5.44925 9.33262 5.44661 9.33169L22.3616 2.92282C22.5042 2.86879 22.6037 2.85747 22.6621 2.85747C22.691 2.85747 22.7609 2.86067 22.7851 2.89036C22.816 2.92837 22.855 3.05763 22.8048 3.30088Z" fill="#FEFEFE"/>
</g>
<defs>
<clipPath id="clip0_2029_29541">
<rect width="20" height="20" fill="white" transform="translate(4)"/>
</clipPath>
</defs>
</svg>
